<?xml version="1.0" encoding="UTF-8"?>
<svg id="Tools4Schools_Logo_Image" data-name="Tools4Schools Logo Image" xmlns="http://www.w3.org/2000/svg" xmlns:xlink="http://www.w3.org/1999/xlink" viewBox="0 0 1197.59 1526.68">
  <defs>
    <style>
      .cls-1 {
        fill: url(#linear-gradient-8);
      }

      .cls-2 {
        fill: url(#linear-gradient-7);
      }

      .cls-3 {
        fill: url(#linear-gradient-5);
      }

      .cls-4 {
        fill: url(#linear-gradient-6);
      }

      .cls-5 {
        fill: url(#linear-gradient-9);
      }

      .cls-6 {
        fill: url(#linear-gradient-4);
      }

      .cls-7 {
        fill: url(#linear-gradient-3);
      }

      .cls-8 {
        fill: url(#linear-gradient-2);
      }

      .cls-9 {
        fill: url(#linear-gradient);
      }

      .cls-10 {
        fill: url(#linear-gradient-10);
      }

      .cls-11 {
        fill: url(#linear-gradient-11);
      }

      .cls-12 {
        fill: url(#linear-gradient-12);
      }

      .cls-13 {
        fill: url(#linear-gradient-13);
      }

      .cls-14 {
        fill: url(#linear-gradient-19);
      }

      .cls-15 {
        fill: url(#linear-gradient-14);
      }

      .cls-16 {
        fill: url(#linear-gradient-21);
      }

      .cls-17 {
        fill: url(#linear-gradient-20);
      }

      .cls-18 {
        fill: url(#linear-gradient-22);
      }

      .cls-19 {
        fill: url(#linear-gradient-23);
      }

      .cls-20 {
        fill: url(#linear-gradient-15);
      }

      .cls-21 {
        fill: url(#linear-gradient-16);
      }

      .cls-22 {
        fill: url(#linear-gradient-17);
      }

      .cls-23 {
        fill: url(#linear-gradient-18);
      }

      .cls-24 {
        fill: url(#linear-gradient-25);
      }

      .cls-24, .cls-25 {
        fill-rule: evenodd;
      }

      .cls-25 {
        fill: url(#linear-gradient-24);
      }
    </style>
    <linearGradient id="linear-gradient" x1="193.57" y1="1043.85" x2="1093.84" y2="1043.85" gradientUnits="userSpaceOnUse">
      <stop offset="0" stop-color="#b6359c"/>
      <stop offset="1" stop-color="#ef0a6a"/>
    </linearGradient>
    <linearGradient id="linear-gradient-2" x1="0" y1="982.48" x2="302.67" y2="982.48" xlink:href="#linear-gradient"/>
    <linearGradient id="linear-gradient-3" x1="261.58" y1="199.81" x2="442.09" y2="199.81" xlink:href="#linear-gradient"/>
    <linearGradient id="linear-gradient-4" x1="308.11" y1="596.22" x2="520.68" y2="596.22" xlink:href="#linear-gradient"/>
    <linearGradient id="linear-gradient-5" x1="537.57" y1="97.51" x2="731.57" y2="97.51" xlink:href="#linear-gradient"/>
    <linearGradient id="linear-gradient-6" x1="717.46" y1="469.05" x2="844.57" y2="469.05" xlink:href="#linear-gradient"/>
    <linearGradient id="linear-gradient-7" x1="425.16" y1="497.74" x2="567.7" y2="497.74" xlink:href="#linear-gradient"/>
    <linearGradient id="linear-gradient-8" x1="791.58" y1="551.53" x2="962.37" y2="551.53" xlink:href="#linear-gradient"/>
    <linearGradient id="linear-gradient-9" x1="936.58" y1="200.26" x2="1026.26" y2="200.26" xlink:href="#linear-gradient"/>
    <linearGradient id="linear-gradient-10" x1="860.44" y1="150.2" x2="949.58" y2="150.2" xlink:href="#linear-gradient"/>
    <linearGradient id="linear-gradient-11" x1="560.58" y1="511.36" x2="708.44" y2="511.36" xlink:href="#linear-gradient"/>
    <linearGradient id="linear-gradient-12" x1="611.71" y1="352.95" x2="653.62" y2="352.95" xlink:href="#linear-gradient"/>
    <linearGradient id="linear-gradient-13" x1="821.5" y1="442.04" x2="882.62" y2="442.04" xlink:href="#linear-gradient"/>
    <linearGradient id="linear-gradient-14" x1="454.47" y1="539.38" x2="513.5" y2="539.38" xlink:href="#linear-gradient"/>
    <linearGradient id="linear-gradient-15" x1="884.58" y1="229.41" x2="945.67" y2="229.41" xlink:href="#linear-gradient"/>
    <linearGradient id="linear-gradient-16" x1="940.57" y1="121.13" x2="1001.58" y2="121.13" xlink:href="#linear-gradient"/>
    <linearGradient id="linear-gradient-17" x1="766.67" y1="526.36" x2="828.71" y2="526.36" xlink:href="#linear-gradient"/>
    <linearGradient id="linear-gradient-18" x1="869.8" y1="605.11" x2="903.57" y2="605.11" xlink:href="#linear-gradient"/>
    <linearGradient id="linear-gradient-19" x1="351.65" y1="1057.62" x2="376.12" y2="1057.62" xlink:href="#linear-gradient"/>
    <linearGradient id="linear-gradient-20" x1="675.09" y1="1288.89" x2="1019" y2="1288.89" xlink:href="#linear-gradient"/>
    <linearGradient id="linear-gradient-21" x1="781.49" y1="1286.42" x2="915.67" y2="1286.42" xlink:href="#linear-gradient"/>
    <linearGradient id="linear-gradient-22" x1="912.67" y1="1266.94" x2="1019" y2="1266.94" xlink:href="#linear-gradient"/>
    <linearGradient id="linear-gradient-23" x1="675.09" y1="1303.51" x2="827.57" y2="1303.51" xlink:href="#linear-gradient"/>
    <linearGradient id="linear-gradient-24" x1="1001.58" y1="442.04" x2="1197.59" y2="442.04" xlink:href="#linear-gradient"/>
    <linearGradient id="linear-gradient-25" x1="58.43" y1="464.25" x2="244.25" y2="464.25" xlink:href="#linear-gradient"/>
  </defs>
  <path class="cls-9" d="M361.58,952.01c-9.18-1.21-13.36,9.07-13.89,16.63-.73,10.24,3.92,22.56,3.79,30.76-.31,19.39-13.18,47.04-9.67,66.88,1.34,7.59,5.42,7.14,10.45,10.06.6.35.94,1.96,1.89,2.55,5.6,3.48,24.19-.13,28.28-5.52,1.13-1.49,2.13-4.47,2.66-6.34,2.8-9.82.26-30.46-.52-41.51-.51-7.21-3.19-18.51-2.89-25.06.03-.72,4.75-10.15,5.61-13.23,2.1-7.48,5.03-19.59,1.15-26.58-3-5.4-12.26-7.73-11.84-13.01,21.62-76.13,53.46-153.77,116.5-204.6,46.12-37.19,107.92-54.26,165.25-65.75,83.44-16.73,171.09-23.55,255.6-34.4,57.26-7.35,105.77-28.05,150.14,22.11,92.16,104.2-51.38,177.48-137.86,201.17-93.06,25.49-214.58,38.06-304.33-2.98-46.37-21.2-98.32-82.36-152.63-49.98-12.5,7.45-21.63,17.05-28.7,29.79l21.33-14.16c53.77-29.5,86.77,17.54,127.76,42.59,79.38,48.51,177.09,47.26,266.29,33.46,55.13-8.53,109.01-24.56,158.62-49.87l5.01,113.99c-12.05-2.07-23.12-5.29-35.51-5.98-51.17-2.87-104.72,6.72-155.13,13.85-56.57,8.01-114.55,14.48-169.13,31.87-35.15,11.2-61.84,35.08-75.72,69.28-9.03,22.23-8.56,42.95-9.53,66.47-.69,16.81-3.2,42.75-.9,58.92,1.87,13.16,22.16,16.11,31.26,7.44,3.1-2.96,3.42-11.61,3.69-16.31,2.77-48.78-5.61-88.68,27.98-130.02,37.88-46.61,136.67-56.67,193.35-64.65,52.36-7.37,118.88-18.85,171.16-14.92,39.87,3,65.49,33.32,70.34,71.66,8.08,63.84,6.6,136.47,5.08,200.84-.9,37.99,3.78,86.83-20.98,118.02-4.9,6.17-12.55,10.92-17.39,16.61-14.12,16.61-15.55,30.06-36.68,44.32s-85.52,27.64-113.87,34.13c-67.61,15.47-135.8,28.49-204.27,39.73-53.15,8.73-119.41,28.81-162.42-15.62-41.21-42.57-34.6-170.73-38.31-228.19-.11-1.74-.38-6.54-2.03-7.46-.9,8.09-.44,16.4-1.02,24.48-4.18,57.71-10.69,111.93-.82,169.84,6.22,36.55,16.71,49.18,44.6,71.41.79.63,2.77.76.24,1.78-2.73,1.1-26.91-4.77-32.23-3.8-57.72-12.52-112.07-36.39-167.26-56.74-26.58-9.8-57.49-15.68-79.53-34.47-31.07-26.49-41.92-65.97-46.86-105.14-8.72-69.18-3.37-137,13.36-204.39,3.76-15.14,9.13-29.85,12.52-44.99,3.65-.05,5.51,3.63,8.08,5.42,23.9,16.58,61.28,33.75,88.95,43.05,48.83,16.4,102.75,21.47,152.96,8.04-7.57-4.99-18.12-3.39-26.37-4.63-46.13-6.92-95.43-19.32-138.87-36.13-25.51-9.87-50.53-21.25-73.59-35.91.18-8.76.51-17.56.85-26.33,5.65-146.19-19.97-367.21,118.07-461.93,4.29-2.94,12.85-9.39,17.9-7.07,1.46.67,11.55,11.34,13.53,13.47,11.21,12.06,23.93,27.85,31.66,42.34,2.59,4.86,3.92,10.24,7.44,14.62-25.19,30.77-43.47,64.52-54.11,103.05-19.51,70.67-18.17,144.84-8.49,217ZM645.63,1176.06c.65,25.94-2.25,51.56-2.11,77.49.25,43.5,1.59,89.54,4.09,132.92.65,11.28-.83,16.79,4.25,27.75,7.28,15.72,19.47,23.03,36.32,25.68,99.81-12.53,200.45-31.45,297.4-58.39,53.39-14.84,59.71-38.05,63.03-89.97,3.1-48.36,2.08-96.64-.08-145-.32-7.27,1.25-18.6.04-25.04-.23-1.21-.33-1.94-1.65-2.38-2.24-.74-34.27,6.06-39.56,7.17-51.12,10.71-101.58,22.1-153.42,29.58-55.2,7.96-115.4,16.3-170.88,19.12-12.45.63-25.14-1.15-37.44,1.06Z"/>
  <path class="cls-8" d="M302.57,582.02c.45,1.73-.72,2-1.49,3-8.15,10.61-17.54,18.73-25.33,30.67-48.05,73.61-55.93,162.8-61.47,248.53-23.43,103.23-50.93,203.94-87.95,303.05-16.06,43.01-47.07,92.03-20.75,137.22-16.82,9.24-36.37,9.48-55,7.53-1.5,1.31,3.81,4.24,4.69,4.8,24.55,15.4,65.38,4.88,89.98-6.62,3.98-1.86,26.25-15.61,27.77-15.17.96.28,1.39,1.53,1.55,2.49,1.35,7.85.27,17.22,1.01,24.99,1.17,12.28,4.26,24.8,7.27,36.73,1.28,5.07,4.16,9.79,3.78,15.18-37.07,12.61-80.28,11.52-115.95-5.02-74.18-34.39-80.42-115.34-61.84-186.59,23.27-89.2,59.64-175.45,82.04-265.96,24.08-97.29,39.19-245.71,130.37-303.63,24.51-15.57,53.26-24.51,81.3-31.19Z"/>
  <path class="cls-7" d="M261.58,290.01v-99.5c0-22.59,20.58-51.91,38.68-64.32,80.82-55.4,178.77,39.03,127.74,121.74-11.88,19.25-42.63,42.08-65.92,42.08h-100.5ZM414.58,207.51c.48-4.76-.35-10.15,0-15l-1.5-1.5h-39l-9.5,17h32c-6.26,46.03-74.83,51.87-88.5,7-14.85-48.74,43.48-82.26,78-46.02,1.52-2.69,9.63-13.63,8.35-15.82-48.42-41.58-120.21,3.17-102.8,65.29s116.18,55.88,122.94-10.94Z"/>
  <path class="cls-6" d="M520.46,698.9c-15.46,6.61-29.37,17.37-43.17,27.11-1.06.75-.12,2.79-2.7,1.99-5.45-28.25-12.86-57.57-22.97-84.54-18.46-49.25-56.56-98.39-102.73-124.27-9.27-5.2-31.64-12.71-37.31-20.69-8.69-12.22-.11-33.49,15.77-34.25,12.69-.6,42.89,16.62,54.74,23.73,70.79,42.46,124.53,123.3,138.25,204.74.34,2.02.51,4.14.12,6.16Z"/>
  <path class="cls-3" d="M731.57,96.02l-24.76,6.72c-38.99,14.02-67.96,50.82-71.73,92.28-5.42-51.19-46.31-92.7-97.51-98.51,50.52-6.39,90.29-46.23,97.51-96.51,6.01,49.47,46.9,90.53,96.49,96.02Z"/>
  <path class="cls-4" d="M724.57,642.01l-5.82-1.16c-1.74-1.08-1.23-14.44-1.16-17.33,2.35-89.45,13.06-171.02,51.13-252.87,6.71-14.42,31.09-61.69,41.85-70.15,13.26-10.43,34.05-1.08,34.01,15.01-.03,10.62-19.59,32.95-26.02,42.97-35.47,55.21-63.42,125.6-78.49,189.51-7.22,30.62-12.98,62.67-15.5,94.01Z"/>
  <path class="cls-2" d="M566.57,658l-33.22-103.26c-26.7-66.7-59.99-130.52-106.27-185.73-9.19-22.77,16.78-42.05,35.05-25.05,9.46,8.8,24.39,34.71,31.26,46.74,41.45,72.62,70.18,163.83,74.19,247.81.31,6.53.09,13.07-1,19.49Z"/>
  <path class="cls-1" d="M791.58,633c6.58-17.41,15.13-33.89,24.57-49.92,24.8-40.78,64.51-80.31,106.12-103.88,9.88-5.6,23.24-15.21,33.3-4.69,7.21,7.55,9.89,21.93,2,29.98-4.38,4.47-19.92,11.53-26.3,15.7-36.92,24.13-62.13,47.46-86.72,84.28-2.77,4.15-11.83,21.44-13.89,23.11-3.18,2.57-37.6,6.74-39.07,5.42Z"/>
  <path class="cls-5" d="M936.58,255.01c3.3-4.18,4.61-9.26,6.27-14.23,9.32-27.98,15.61-57.09,24.9-85.1,5.78-11.7,25.05-10.49,36.38-9.71,21.63,1.5,23.83,13.27,21.31,32.4-2.38,18.06-14.54,59.82-28.85,71.15-1.92,1.52-8.49,5.49-10.51,5.49h-49.5Z"/>
  <path class="cls-10" d="M949.58,96.01c-1.16,3.3-3.04,5.75-4.28,9.22-10.13,28.25-15.94,59.75-25.69,88.31-1.71,4.49-6.38,8.83-11,10-5.56,1.41-30.9,1.03-36.3-.76-7.43-2.45-10.97-8.76-11.72-16.28-1.81-18.21,13.05-66.8,25.01-80.97,2.27-2.69,10.17-9.52,13.48-9.52h50.5Z"/>
  <path class="cls-11" d="M560.58,491.02c16.85-1.34,33.66-4.72,50.51-6,17.65-1.34,38.28-1.76,56.04-1.06,10.28.41,28.09,1.23,37.73,3.27,1,.21,2.73.93,3.24,1.77,1.94,3.21-5.24,26.68-4.69,32.34l-1.47,1.53c-9.59.68-19.32-.42-28.9.1-24.3,1.31-53.69,6.33-77.69,11.31-4.27.89-16.04,5.27-19.26,4.78-1.22-.19-2-.44-2.32-1.75l-13.19-46.3Z"/>
  <path class="cls-12" d="M633.57,451c-1.43.24-1.36-1.74-1.69-2.78-12.87-41.3-18.42-116.74-19.26-160.75-.16-8.39-3.1-14.06,2.53-22.39,12.93-19.15,38.23-9.24,38.47,12.49.25,22.69-3.8,47.36-6.03,69.95-2.91,29.43-4.77,59.62-10.3,88.7-.96,5.04-2.4,9.86-3.72,14.79Z"/>
  <path class="cls-13" d="M877.22,439.66c-15.97,11.14-30.83,25.94-47.33,36.17-2.7,1.67-4.73,3.81-8.31,3.18-.26-2.02.18-3.87.68-5.81,3.52-13.56,16.94-43.45,24.51-55.49,4.91-7.81,9.6-14.17,20.07-12.45,16.01,2.62,20.51,23.17,10.38,34.4Z"/>
  <path class="cls-15" d="M513.4,563.83c-4.08,1.74-14.82,9.71-18.82,7.71-7.66-10.37-13.6-22.34-21.56-32.47-4.71-6-13.61-13.01-17.45-18.55-.59-.85-1.39-.99-.98-2.5l31.74-10.8c1.37-.34,3.1-.58,4.3.24,1.34.92,11.86,25.82,13.42,29.58s10.48,24.87,9.35,26.79Z"/>
  <path class="cls-20" d="M936.08,211.01c2.78-.56,6.95-4.93,9-7,.78-.15.58.89.5,1.49-1.1,7.73-8.42,32.04-11.52,39.49-4.03,9.66-14.26,12.46-23.19,7.23-13.32-7.81-8.29-28.38-19.8-37.2-2.15-1.65-5.17-2.03-6.49-4.01h51.5Z"/>
  <path class="cls-21" d="M953.08,139.01c-1.13.19-5.59,2.4-6.84,3.16-2.05,1.25-3.37,4.1-5.67,4.33,5.05-12.52,7-27.72,11.96-40.04,3.88-9.63,12.32-13.15,22.06-8.96,15,6.45,9.46,30.27,22.03,38.98,1.83,1.27,4.52.83,4.96,2.54h-48.5Z"/>
  <path class="cls-22" d="M828.45,528.12c.49.78.16,2.21-.11,3.13-.83,2.79-14.14,17.65-17.09,17.51l-42.6-18.32c-4.39-2.64-.22-5.89.66-9.21,1.07-4.03,1.94-12.49,3.47-15.53.62-1.22.77-1.63,2.3-1.75,19.03,5.16,35.77,15.76,53.38,24.16Z"/>
  <path class="cls-23" d="M903.57,621l-23.29,1.83-10.49-17.16c3.29-7.28,9.32-13.56,15.73-18.29,2.07-.53,8.43,11.3,9.57,13.59,3.24,6.51,5.22,13.52,8.47,20.02Z"/>
  <path class="cls-14" d="M354.88,1066.71c-9.12-10.29,2.56-28.78,16.2-18.7,14.58,10.77-6.17,30.02-16.2,18.7Z"/>
  <path class="cls-17" d="M1002.55,1219.99c2.36-11.55,8.7-22.42,8.89-34.31-21.93-13.73-56.21-8.73-75.33,8.36-17.24,15.41-25.18,44.14-17,65.95s32.8,21.62,51.72,26.28c10.82,2.66,17.72,5.49,15.69,18.19-2.91,18.17-30.65,19.32-44.47,14.6-6.34-2.17-11.05-7.57-17.41-7.99l-11.68,29.92c-.58,1.26-.17,1.61.61,2.49,5.22,5.87,27.5,12.29,35.47,12.58,43.24,1.59,75.1-31.94,69.29-75.28-4.15-30.97-39.23-29.59-62.44-36.56-17.25-12.74.07-29.72,15.44-31.96,13.36-1.95,19.65,4.01,31.23,7.74ZM781.58,1330.51c-.2,7.31,0,14.68,0,22,0,.14,1.6,1.84,2.03,2.04,2.46,1.12,18.57-3.59,22.72-4.28,17.73-2.95,36.01-4.35,53.25-9.25v36l31.06-5.44,5.46-2.54.44-34.35c.59-2.53,14.28-1.4,16.5-4.71,2.49-3.71,1.39-15.57,1.5-20.5s3.35-10.76-1.64-14.35c-3.59-1.09-12.84,4.41-16.32,1.39v-79.5c-2.33-.56-1.65.45-2.29,1.27-3.27,4.16-6.73,10.71-9.51,15.43-4.64,7.89-22.02,36.64-23.73,43.27-1.43,5.56.63,26.18-1.6,28.9l-33.86,6.13,64.01-114.49c.58-2.46-2.84-1.56-4.39-1.38-4.99.6-32.91,5.37-35.34,7.17-11.98,18.36-21.36,38.28-32.12,57.38-8.6,15.27-18.05,30.21-26.37,45.63-4.29,7.95-9.57,15.49-9.8,24.2ZM675.58,1233.51c-1.54,9.03,1.14,22.01,0,31.5,7.43-.55,14.97-1.2,22.37-2.13,6.99-.87,17.75-3.89,24.18-3.92,1.12,0,3.44.51,3.44,1.54v139.5c10.08-.88,20.27-2.5,30.22-4.28,2.5-.45,7.18-.64,7.96-3.11l-.13-139.57c2.25-2.33,34.35-2.32,41.5-7,5.87-3.84,15.51-29.09,21.67-35.33l.78-3.71c-39.83,6.21-79.69,12.2-119.62,17.87-7.31,1.04-23.17,1.02-29.15,3.85-1.46.69-2.98,3.36-3.22,4.78Z"/>
  <path class="cls-16" d="M781.58,1330.51c.24-8.7,5.52-16.25,9.8-24.2,8.31-15.43,17.77-30.36,26.37-45.63,10.75-19.1,20.14-39.02,32.12-57.38,2.43-1.8,30.35-6.56,35.34-7.17,1.55-.19,4.97-1.09,4.39,1.38l-64.01,114.49,33.86-6.13c2.23-2.72.17-23.34,1.6-28.9,1.7-6.63,19.09-35.38,23.73-43.27,2.78-4.73,6.24-11.28,9.51-15.43.64-.81-.04-1.83,2.29-1.27v79.5c3.49,3.01,12.73-2.48,16.32-1.39,4.98,3.59,1.75,9.65,1.64,14.35s.99,16.79-1.5,20.5c-2.22,3.31-15.91,2.17-16.5,4.71l-.44,34.35-5.46,2.54-31.06,5.44v-36c-17.23,4.9-35.51,6.3-53.25,9.25-4.15.69-20.26,5.41-22.72,4.28-.44-.2-2.03-1.89-2.03-2.04,0-7.32-.2-14.69,0-22Z"/>
  <path class="cls-18" d="M1002.55,1219.99c-11.58-3.73-17.87-9.69-31.23-7.74-15.37,2.24-32.69,19.23-15.44,31.96,23.21,6.97,58.29,5.59,62.44,36.56,5.81,43.34-26.05,76.88-69.29,75.28-7.97-.29-30.24-6.71-35.47-12.58-.79-.88-1.2-1.23-.61-2.49l11.68-29.92c6.36.42,11.07,5.82,17.41,7.99,13.82,4.73,41.57,3.57,44.47-14.6,2.03-12.7-4.87-15.53-15.69-18.19-18.93-4.66-43.44-4.2-51.72-26.28s-.23-50.54,17-65.95c19.12-17.09,53.4-22.09,75.33-8.36-.18,11.9-6.52,22.76-8.89,34.31Z"/>
  <path class="cls-19" d="M675.58,1233.51c.24-1.42,1.76-4.09,3.22-4.78,5.98-2.83,21.84-2.81,29.15-3.85,39.93-5.67,79.79-11.66,119.62-17.87l-.78,3.71c-6.16,6.25-15.8,31.49-21.67,35.33-7.14,4.68-39.24,4.67-41.5,7l.13,139.57c-.78,2.47-5.46,2.66-7.96,3.11-9.95,1.78-20.14,3.4-30.22,4.28v-139.5c0-1.03-2.33-1.55-3.44-1.54-6.44.03-17.19,3.04-24.18,3.92-7.4.92-14.94,1.58-22.37,2.13,1.14-9.49-1.54-22.47,0-31.5Z"/>
  <path class="cls-25" d="M1076.76,415.62v-18.46c0-1.55.59-2.72,1.94-3.5l37.1-21.37c5.06-2.92,11.07-4.27,17.29-4.27,23.31,0,38.08,18.07,38.08,37.29,0,1.36,0,2.92-.2,4.47l-38.47-22.53c-2.13-1.36-4.86-1.36-6.99,0,0,0-48.76,28.36-48.76,28.36ZM1163.4,487.49v-44.09c0-2.72-1.17-4.66-3.5-6.02l-48.76-28.36,15.93-9.13c1.18-.78,2.71-.78,3.89,0l37.1,21.37c10.69,6.21,17.88,19.42,17.88,32.24,0,14.77-8.74,28.36-22.54,34v-.02ZM1065.3,448.66l-15.93-9.33c-1.36-.78-1.95-1.94-1.95-3.5v-42.75c0-20.79,15.93-36.52,37.5-36.52,8.17,0,15.74,2.72,22.15,7.58l-38.27,22.15c-2.33,1.36-3.5,3.3-3.5,6.02v56.34h0ZM1099.58,468.46l-22.83-12.82v-27.2l22.83-12.82,22.83,12.82v27.2l-22.83,12.82ZM1114.25,527.51c-8.17,0-15.74-2.71-22.15-7.57l38.27-22.15c2.33-1.36,3.5-3.3,3.5-6.02v-56.34l16.12,9.33c1.36.78,1.94,1.94,1.94,3.5v42.74c0,20.79-16.12,36.52-37.68,36.52h0ZM1068.21,484.2l-37.11-21.37c-10.68-6.22-17.87-19.42-17.87-32.24-.05-14.9,8.94-28.35,22.73-34v44.29c0,2.72,1.17,4.66,3.5,6.03l48.57,28.17-15.93,9.13c-1.18.78-2.71.78-3.89,0ZM1066.07,516.05c-21.95,0-38.08-16.51-38.08-36.91,0-1.55.2-3.1.38-4.66l38.27,22.13c2.34,1.36,4.66,1.36,6.99,0l48.76-28.16v18.46c0,1.55-.57,2.72-1.94,3.5l-37.1,21.37c-5.06,2.92-11.07,4.27-17.29,4.27ZM1114.25,539.16c23.08,0,42.97-16.23,47.59-38.84,21.76-5.64,35.75-26.04,35.75-46.82,0-13.6-5.82-26.8-16.32-36.33.97-4.08,1.55-8.16,1.55-12.23,0-27.78-22.53-48.57-48.56-48.57-5.24,0-10.29.78-15.35,2.53-9.07-8.92-21.26-13.94-33.98-13.99-23.08,0-42.97,16.24-47.59,38.85-21.77,5.64-35.76,26.04-35.76,46.82,0,13.61,5.82,26.81,16.32,36.33-.97,4.08-1.55,8.17-1.55,12.24,0,27.78,22.53,48.56,48.56,48.56,5.24,0,10.29-.78,15.35-2.52,9.07,8.93,21.27,13.95,33.99,13.99v-.02Z"/>
  <path class="cls-24" d="M151.33,394.57c-51.31,0-92.9,42.18-92.9,94.24v45.12h17.13v-4.49c0-21.12,16.86-38.23,37.67-38.23s37.67,17.11,37.67,38.22v4.5h17.13v-4.49c0-30.71-24.54-55.59-54.8-55.59-11.36-.01-22.43,3.56-31.64,10.2,9.35-18.86,28.61-31.81,50.85-31.81,31.41,0,56.88,25.84,56.88,57.7v23.98h17.13v-23.98c0-41.46-33.14-75.09-74.02-75.09-17.7-.01-34.81,6.41-48.13,18.06,12.71-24.38,37.95-40.99,67.03-40.99,41.86,0,75.78,34.42,75.78,76.88v45.12h17.13v-45.12c0-52.06-41.6-94.24-92.92-94.24Z"/>
</svg>